<svg width="15" height="15" viewBox="0 0 15 15" fill="none" xmlns="http://www.w3.org/2000/svg">
<path d="M14.9999 1.225C14.9999 0.915581 14.877 0.618834 14.6582 0.400042C14.4394 0.18125 14.1427 0.0583335 13.8333 0.0583335L4.49993 0C4.19051 0 3.89376 0.122917 3.67497 0.341709C3.45618 0.560501 3.33326 0.857247 3.33326 1.16667C3.33326 1.47609 3.45618 1.77283 3.67497 1.99162C3.89376 2.21042 4.19051 2.33333 4.49993 2.33333H10.9866L1.33826 12.005C1.22891 12.1135 1.14212 12.2425 1.08289 12.3847C1.02366 12.5268 0.993164 12.6793 0.993164 12.8333C0.993164 12.9873 1.02366 13.1398 1.08289 13.282C1.14212 13.4242 1.22891 13.5532 1.33826 13.6617C1.44672 13.771 1.57575 13.8578 1.71792 13.917C1.86009 13.9763 2.01258 14.0068 2.1666 14.0068C2.32061 14.0068 2.4731 13.9763 2.61527 13.917C2.75744 13.8578 2.88647 13.771 2.99493 13.6617L12.6666 3.99V10.5C12.6666 10.8094 12.7895 11.1062 13.0083 11.325C13.2271 11.5437 13.5238 11.6667 13.8333 11.6667C14.1427 11.6667 14.4394 11.5437 14.6582 11.325C14.877 11.1062 14.9999 10.8094 14.9999 10.5V1.225Z" fill="white"/>
</svg>
