<svg width="31" height="33" viewBox="0 0 31 33" fill="none" xmlns="http://www.w3.org/2000/svg">
<path d="M11.4833 32.5001C10.1063 32.4935 8.74442 32.213 7.47686 31.6751C6.2093 31.1372 5.06139 30.3525 4.09995 29.3668C3.14573 28.4624 2.37921 27.3787 1.84425 26.1777C1.3093 24.9767 1.01642 23.6821 0.98236 22.3678C0.948303 21.0535 1.17374 19.7454 1.64578 18.5184C2.11782 17.2913 2.82718 16.1694 3.73329 15.2168L16 2.83343C16.655 2.17956 17.4358 1.66522 18.2952 1.32148C19.1545 0.977733 20.0746 0.811709 21 0.83343C21.9911 0.836805 22.9717 1.03749 23.8845 1.42379C24.7974 1.8101 25.6241 2.37427 26.3166 3.08343C27.6949 4.4105 28.4943 6.22762 28.5411 8.14039C28.5879 10.0532 27.8784 11.9072 26.5666 13.3001L14.2333 25.6834C13.8383 26.0811 13.3682 26.3964 12.8503 26.611C12.3325 26.8256 11.7772 26.9352 11.2166 26.9334C10.6111 26.9342 10.0115 26.8137 9.45332 26.579C8.89512 26.3443 8.38961 26.0001 7.96662 25.5668C7.12117 24.7482 6.63291 23.629 6.60794 22.4525C6.58298 21.276 7.02332 20.1371 7.83329 19.2834L19.2166 7.8501C19.5406 7.63494 19.9296 7.53984 20.3163 7.58129C20.703 7.62273 21.063 7.7981 21.334 8.07703C21.605 8.35596 21.77 8.72088 21.8003 9.10861C21.8306 9.49634 21.7243 9.88245 21.5 10.2001L10.1166 21.6334C9.9268 21.8621 9.83441 22.1562 9.85935 22.4524C9.88429 22.7485 10.0246 23.023 10.25 23.2168C10.4845 23.4529 10.8006 23.5901 11.1333 23.6001C11.2565 23.6019 11.3789 23.5792 11.4933 23.5334C11.6077 23.4877 11.7119 23.4197 11.8 23.3334L24.1166 10.9501C24.808 10.1821 25.1693 9.17282 25.1225 8.14051C25.0757 7.10821 24.6246 6.13578 23.8666 5.43343C23.1626 4.7025 22.2052 4.2692 21.1914 4.2227C20.1776 4.17619 19.1846 4.52002 18.4166 5.18343L6.09995 17.5001C5.50103 18.1434 5.03522 18.8988 4.72933 19.7227C4.42344 20.5467 4.28351 21.4231 4.31759 22.3014C4.35167 23.1796 4.55908 24.0425 4.9279 24.8403C5.29671 25.6381 5.81965 26.3551 6.46662 26.9501C7.11541 27.6227 7.89173 28.1592 8.75022 28.5283C9.60871 28.8975 10.5322 29.0919 11.4666 29.1001C12.2723 29.1066 13.0714 28.9539 13.8179 28.6508C14.5644 28.3476 15.2436 27.8999 15.8166 27.3334L28.1333 14.9501C28.2876 14.7947 28.471 14.6712 28.673 14.5867C28.875 14.5022 29.0917 14.4583 29.3107 14.4575C29.5297 14.4567 29.7467 14.4991 29.9493 14.5822C30.152 14.6653 30.3362 14.7875 30.4916 14.9418C30.647 15.0961 30.7705 15.2795 30.855 15.4815C30.9395 15.6835 30.9834 15.9002 30.9842 16.1192C30.985 16.3382 30.9426 16.5552 30.8595 16.7578C30.7764 16.9604 30.6543 17.1447 30.5 17.3001L18.1833 29.6834C17.3088 30.5734 16.2662 31.2807 15.116 31.7642C13.9658 32.2477 12.731 32.4979 11.4833 32.5001Z" fill="#92BBDB"/>
</svg>
