<svg width="573" height="573" viewBox="0 0 573 573" fill="none" xmlns="http://www.w3.org/2000/svg">
<path d="M1 1.452C1 1.452 143.581 1.452 286.387 1.452C293.618 1.452 300.622 1.452 307.853 1.452C336.55 1.452 364.117 1.452 391.232 1.452C398.011 1.452 404.564 1.452 411.117 1.452C501.952 1.452 572 1.452 572 1.452" stroke="#828282" stroke-width="0.5" stroke-miterlimit="10"/>
<path d="M1 31.5046C1 31.5046 116.465 31.5046 243.681 31.5046C250.685 31.5046 257.916 31.5046 264.921 31.5046C318.925 29.019 371.574 29.019 427.612 31.5046C433.035 31.5046 438.458 31.5046 443.881 31.5046C518.222 31.5046 571.548 31.5046 571.548 31.5046" stroke="#828282" stroke-width="0.5" stroke-miterlimit="10"/>
<path d="M1 61.5572C1 61.5572 104.038 61.5572 222.666 61.5572C229.671 61.5572 236.676 61.5572 243.681 61.7832C311.243 61.7832 381.516 56.812 448.4 61.5572C454.501 61.5572 460.376 61.5572 466.025 61.5572C528.616 61.5572 571.774 61.5572 571.774 61.5572" stroke="#828282" stroke-width="0.5" stroke-miterlimit="10"/>
<path d="M1 91.6098C1 91.6098 81.2157 91.6098 181.542 91.6098C188.321 91.6098 195.099 91.6098 201.878 91.6098C208.883 91.6098 215.888 91.8357 222.892 92.0617C303.786 91.6098 386.713 89.1242 465.799 91.3838C476.419 91.6098 486.135 91.6098 495.4 91.3838C541.495 91.3838 571.548 91.3838 571.548 91.3838" stroke="#828282" stroke-width="0.5" stroke-miterlimit="10"/>
<path d="M1 121.436C1 121.436 81.2157 121.436 181.542 121.436C188.321 121.436 195.099 121.436 201.878 121.436C207.753 120.759 213.402 120.533 219.051 120.533C258.594 121.662 293.844 129.119 333.839 134.09C384.002 141.547 431.679 126.634 482.294 121.436C492.914 121.436 503.082 121.436 512.121 121.436C548.726 121.436 571.548 121.436 571.548 121.436" stroke="#828282" stroke-width="0.5" stroke-miterlimit="10"/>
<path d="M1 151.489C1 151.489 81.2157 151.489 181.542 151.489C188.321 151.489 195.099 151.489 201.878 151.489C207.753 151.037 213.402 151.037 219.051 151.263C224.7 151.489 230.349 152.167 235.998 152.619C293.844 154.201 344.007 186.739 399.141 189.224C429.193 189.224 451.789 164.143 479.808 153.975C484.78 152.167 489.977 151.037 495.4 150.359C500.823 149.907 506.472 150.133 512.347 151.263C521.385 151.263 529.745 151.263 536.976 151.263C558.894 151.263 571.548 151.263 571.548 151.263" stroke="#828282" stroke-width="0.5" stroke-miterlimit="10"/>
<path d="M1 181.542C1 181.542 81.2157 181.542 181.542 181.542C188.321 181.542 195.099 181.542 201.878 181.542C210.013 181.09 218.147 181.316 226.056 181.994C233.964 182.672 241.647 183.575 249.33 184.479C286.387 186.739 318.925 201.878 351.689 217.017C404.338 239.613 449.53 209.561 493.818 185.609C500.597 183.123 507.376 181.316 514.606 180.412C521.837 179.508 529.294 179.734 537.202 181.542C548.048 181.542 556.861 181.542 562.736 181.542C568.611 181.542 571.774 181.542 571.774 181.542" stroke="#828282" stroke-width="0.5" stroke-miterlimit="10"/>
<path d="M1 211.594C1 211.594 92.2877 211.594 201.878 211.594C208.657 211.594 215.662 211.594 222.666 211.594C230.801 213.402 239.161 214.984 247.296 216.34C316.44 224.474 386.713 257.238 456.535 238.032C464.217 235.998 471.9 233.287 479.582 229.671C487.265 226.282 494.722 221.989 502.404 217.018C515.058 209.561 525 212.046 537.428 211.594C548.274 211.594 556.861 211.594 562.962 211.594C568.836 211.594 572 211.594 572 211.594" stroke="#828282" stroke-width="0.5" stroke-miterlimit="10"/>
<path d="M1 241.647C1 241.647 116.465 241.647 243.681 241.647C250.685 241.647 257.916 241.647 265.373 242.099C318.925 259.724 374.059 264.695 428.742 261.306C437.78 260.628 446.818 259.498 455.857 258.142C482.972 254.301 510.087 248.652 537.202 241.873C548.048 241.873 556.635 241.873 562.51 241.873C568.385 241.873 571.548 241.873 571.548 241.873" stroke="#828282" stroke-width="0.5" stroke-miterlimit="10"/>
<path d="M1 271.7C1 271.7 129.797 271.7 264.921 271.7C271.926 271.7 279.156 271.7 286.387 271.926C338.81 279.834 388.973 292.488 444.333 284.805C476.871 279.834 504.438 269.666 536.976 271.7C544.207 271.7 550.534 271.7 555.505 271.7C565.673 271.7 571.548 271.7 571.548 271.7" stroke="#828282" stroke-width="0.5" stroke-miterlimit="10"/>
<path d="M1 301.752C1 301.752 25.8556 301.752 64.9466 301.752C72.8552 301.752 81.2157 301.752 90.0281 301.752C95.9031 301.752 102.004 301.978 107.879 301.978C113.98 301.978 119.855 302.204 125.956 302.204C155.556 302.43 185.609 302.43 215.21 301.752C221.085 301.752 226.96 301.752 232.835 301.752C250.459 301.752 268.31 301.752 286.161 301.752C293.392 301.752 300.397 301.752 307.627 301.752C379.03 309.887 449.304 307.401 519.125 301.978C529.746 301.752 539.236 301.752 547.144 301.752C562.736 301.752 571.774 301.752 571.774 301.752" stroke="#828282" stroke-width="0.5" stroke-miterlimit="10"/>
<path d="M1 331.805C1 331.805 6.649 331.805 17.0431 331.805C22.2402 331.805 28.5671 331.805 35.7978 331.805C44.6102 331.805 53.1967 332.031 62.0091 332.031C138.383 327.512 211.142 332.709 286.613 331.805C295.425 331.805 304.464 331.805 313.276 331.805C322.089 331.805 330.901 331.805 339.714 331.805C391.684 332.483 447.044 332.483 499.919 331.805C510.765 331.805 520.707 331.805 529.52 331.805C555.957 331.805 571.774 331.805 571.774 331.805" stroke="#828282" stroke-width="0.5" stroke-miterlimit="10"/>
<path d="M1 361.858C1 361.858 9.81243 361.858 25.4036 361.858C33.0863 361.632 40.9948 361.406 48.6775 360.954C135.898 344.911 221.085 357.564 307.853 361.632C314.858 361.632 322.089 361.632 329.093 361.632C341.747 361.632 354.401 361.632 366.829 361.632C372.93 361.632 379.256 361.632 385.131 361.632C411.795 362.309 441.847 362.309 469.414 361.632C479.583 361.632 489.073 361.632 498.111 361.632C542.851 361.632 571.774 361.632 571.774 361.632" stroke="#828282" stroke-width="0.5" stroke-miterlimit="10"/>
<path d="M1 391.91C1 391.91 6.64899 391.91 16.8172 391.91C25.6296 391.232 34.668 390.329 43.2544 389.199C128.215 360.276 218.373 370.218 307.175 391.91C314.632 391.91 321.637 392.136 328.867 392.136C456.083 392.136 571.548 392.136 571.548 392.136" stroke="#828282" stroke-width="0.5" stroke-miterlimit="10"/>
<path d="M1 421.963C1 421.963 6.64899 421.963 16.8172 421.963C24.4998 422.867 31.9565 422.867 39.1872 421.737C68.11 415.41 90.706 395.3 120.759 387.617C186.061 372.478 241.195 407.727 304.238 416.766C312.824 418.348 321.185 419.929 329.093 421.963C336.098 421.963 343.103 421.963 350.108 421.963C468.736 421.963 571.774 421.963 571.774 421.963" stroke="#828282" stroke-width="0.5" stroke-miterlimit="10"/>
<path d="M1 452.015C1 452.015 6.64899 452.015 16.8172 452.015C22.0142 452.241 27.4373 452.693 32.6344 452.693C67.8841 457.89 82.7974 420.381 113.076 410.213C138.157 400.271 165.725 405.242 190.806 412.698C228.541 425.352 263.565 440.266 304.012 445.463C312.598 447.27 320.733 449.304 328.642 451.338C335.646 451.564 342.877 451.564 349.656 451.564C468.285 451.564 571.322 451.564 571.322 451.564" stroke="#828282" stroke-width="0.5" stroke-miterlimit="10"/>
<path d="M1 481.842C1 481.842 6.649 481.842 17.0431 481.842C22.2402 481.842 28.5671 481.842 35.5718 481.842C50.4852 478.001 70.5956 485.457 80.5378 472.804C143.355 400.045 231.027 465.347 304.916 474.385C312.824 476.419 320.959 478.905 328.867 481.39C335.872 481.616 343.103 481.616 349.882 481.842C468.51 481.842 571.548 481.842 571.548 481.842" stroke="#828282" stroke-width="0.5" stroke-miterlimit="10"/>
<path d="M1 511.895C1 511.895 13.8797 511.895 35.5718 511.895C42.8025 511.895 51.163 511.895 60.2014 511.895C67.884 510.539 75.3407 513.251 80.3118 510.539C143.129 460.376 213.176 490.429 280.286 501.501C288.647 503.082 296.555 504.664 304.69 506.472C312.598 508.053 320.733 509.861 328.642 511.669C335.646 511.895 342.651 511.895 349.656 511.895C468.285 511.895 571.322 511.895 571.322 511.895" stroke="#828282" stroke-width="0.5" stroke-miterlimit="10"/>
<path d="M1 541.947C1 541.947 23.8219 541.947 60.4274 541.947C69.4658 541.947 79.634 541.947 90.2541 541.947C98.1627 539.914 106.071 538.106 113.98 536.75C153.297 530.649 193.518 528.164 233.512 532.683C241.647 533.135 249.556 533.813 257.464 534.491C265.373 535.168 273.281 535.846 280.964 536.524C288.873 537.202 296.781 537.88 304.916 538.784C312.824 539.688 320.959 540.592 328.867 541.721C335.872 541.721 342.877 541.721 349.882 541.721C468.51 541.721 571.548 541.721 571.548 541.721" stroke="#828282" stroke-width="0.5" stroke-miterlimit="10"/>
<path d="M1 572C1 572 44.1583 572 106.749 572C112.398 572 118.273 572 124.374 572C139.739 571.774 155.104 571.548 170.47 571.322C185.835 571.096 200.974 571.096 216.114 571.096C231.253 571.096 246.618 571.096 261.757 571.322C277.123 571.548 292.262 571.774 307.627 572C314.632 572 321.863 572 328.867 572C456.083 572 571.548 572 571.548 572" stroke="#828282" stroke-width="0.5" stroke-miterlimit="10"/>
<path d="M1 572V1.452" stroke="#828282" stroke-width="0.5" stroke-miterlimit="10"/>
<path d="M31.0525 572C31.0525 572 31.0525 549.178 31.0525 512.573C31.0525 503.534 31.0525 493.366 31.0525 482.746C30.8266 467.833 30.6006 452.919 30.6006 438.232C30.6006 423.545 30.6006 409.083 30.6006 394.396C30.6006 379.708 30.8266 365.021 31.0525 350.108C31.0525 343.103 31.0525 336.098 31.0525 329.093C31.0525 173.633 31.0525 1.22598 31.0525 1.22598" stroke="#828282" stroke-width="0.5" stroke-miterlimit="10"/>
<path d="M61.1053 572C61.1053 572 61.1053 559.12 61.1053 537.428C61.1053 530.197 61.1053 521.837 61.1053 512.799C57.9418 460.602 57.9418 410.439 58.8457 358.694C59.5236 341.973 60.2014 325.026 61.1053 308.305C61.1053 301.3 61.1053 294.07 61.1053 286.839C61.1053 144.258 61.1053 1.452 61.1053 1.452" stroke="#828282" stroke-width="0.5" stroke-miterlimit="10"/>
<path d="M91.158 572C91.158 572 91.158 568.837 91.158 562.962C91.158 557.087 91.158 548.274 91.158 537.428C78.0523 468.059 75.5668 392.814 87.9945 323.218C88.8984 315.31 90.0282 307.175 90.932 299.041C90.932 292.94 90.932 286.839 90.932 280.738C90.932 140.191 90.932 1.452 90.932 1.452" stroke="#828282" stroke-width="0.5" stroke-miterlimit="10"/>
<path d="M121.21 572C119.855 563.865 118.725 555.957 117.369 548.048C103.134 470.544 90.4798 390.328 115.335 313.502C117.143 306.046 118.951 298.137 121.21 290.228C121.21 283.676 121.21 277.123 121.21 270.57C121.21 133.412 121.21 1.22598 121.21 1.22598" stroke="#828282" stroke-width="0.5" stroke-miterlimit="10"/>
<path d="M151.263 571.322C151.489 564.317 151.263 557.539 150.585 550.76C143.355 497.885 105.845 450.208 113.302 392.588C118.273 354.853 153.523 329.771 151.263 289.325C151.263 282.998 151.263 276.897 151.263 270.57C151.263 133.412 151.263 1.22598 151.263 1.22598" stroke="#828282" stroke-width="0.5" stroke-miterlimit="10"/>
<path d="M181.09 569.966C181.09 561.38 180.186 552.793 178.604 544.433C150.811 470.318 108.105 392.588 173.407 319.829C180.864 314.858 183.35 302.204 181.316 289.324C181.316 282.998 181.316 276.897 181.316 270.57C181.316 133.412 181.316 1.22598 181.316 1.22598" stroke="#828282" stroke-width="0.5" stroke-miterlimit="10"/>
<path d="M211.142 569.289C209.335 560.476 207.527 551.664 205.493 542.851C175.893 465.573 153.297 380.16 210.69 308.079C211.142 300.849 211.368 293.844 211.368 286.613C211.368 256.786 211.368 227.186 211.368 198.715C211.368 193.066 211.368 187.417 211.368 181.768C211.142 151.715 211.142 121.663 211.368 90.4801C211.368 81.6677 211.368 73.0812 211.368 65.3986C211.368 26.0816 211.368 1.452 211.368 1.452" stroke="#828282" stroke-width="0.5" stroke-miterlimit="10"/>
<path d="M241.195 569.966C240.292 562.058 239.162 554.149 238.258 546.015C236.902 538.106 235.772 530.197 234.191 522.289C203.46 450.434 218.373 377.675 240.969 308.079C241.195 298.815 241.195 289.324 241.195 280.06C241.195 270.796 241.195 261.306 241.195 252.041C241.195 245.94 241.195 239.613 241.195 233.513C241.421 225.83 241.647 218.147 241.873 210.465C242.099 202.782 242.099 194.873 242.099 187.191C240.969 139.513 240.969 94.3214 241.195 47.7737C241.195 40.543 241.195 33.9902 241.195 28.3412C241.195 11.1683 241.195 1.452 241.195 1.452" stroke="#828282" stroke-width="0.5" stroke-miterlimit="10"/>
<path d="M271.474 571.322C271.248 563.188 271.022 555.053 270.796 547.144C270.57 539.01 270.344 530.875 270.344 522.741C253.849 460.376 264.017 395.3 271.248 329.319C271.474 322.315 271.474 315.084 271.474 308.079C271.474 301.752 271.474 295.651 271.474 289.325C271.474 282.998 271.474 276.897 271.474 270.57C272.377 264.921 273.055 259.498 273.507 254.075C274.185 248.652 274.637 243.229 274.863 237.806C281.416 161.657 271.248 88.8983 271.248 13.4278C271.248 5.51919 271.248 1 271.248 1" stroke="#828282" stroke-width="0.5" stroke-miterlimit="10"/>
<path d="M301.526 572C301.526 554.827 301.526 537.654 301.526 520.933C301.526 512.573 301.526 504.212 301.526 495.852C301.526 487.491 301.526 479.131 301.3 470.77C299.04 430.323 301.526 390.102 301.526 350.334C301.526 344.685 301.526 338.81 301.526 333.161C301.526 327.286 301.526 321.637 301.526 315.762C301.526 309.887 301.526 304.012 301.526 298.137C304.689 290.454 307.175 282.772 309.434 275.089C324.122 184.479 299.04 91.6099 301.526 1.452" stroke="#828282" stroke-width="0.5" stroke-miterlimit="10"/>
<path d="M331.353 572C331.353 572 331.353 559.12 331.353 537.428C331.353 530.197 331.353 521.837 331.353 512.799C331.353 485.683 331.353 458.116 331.353 430.549C331.353 424.222 331.353 417.896 331.353 411.343C331.353 391.458 331.353 370.896 331.353 349.43C331.353 342.425 331.353 335.194 331.353 327.964C331.353 316.44 332.03 304.916 334.516 294.522C337.002 284.127 341.521 274.637 348.977 267.18C359.146 254.753 366.602 239.613 366.602 221.989C361.631 146.744 321.41 78.9561 331.353 1.22598" stroke="#828282" stroke-width="0.5" stroke-miterlimit="10"/>
<path d="M361.406 572C361.406 572 361.406 478.905 361.406 367.958C361.406 362.083 361.406 356.208 361.406 350.334C357.79 331.353 362.761 314.18 370.218 298.137C372.704 292.714 375.415 287.517 378.353 282.32C396.655 257.012 404.112 226.734 399.141 194.195C384.002 126.408 351.464 68.7879 361.406 1" stroke="#828282" stroke-width="0.5" stroke-miterlimit="10"/>
<path d="M391.458 572C391.458 572 391.458 488.621 391.458 385.357C391.458 379.708 391.458 373.833 391.458 367.958C386.487 334.29 401.626 306.271 414.506 277.123C417.669 269.892 420.833 262.435 423.318 254.979C429.193 239.387 431.905 221.763 429.193 206.849C409.083 136.576 381.516 73.985 391.232 1.22598" stroke="#828282" stroke-width="0.5" stroke-miterlimit="10"/>
<path d="M421.511 572C421.511 572 421.511 488.621 421.511 385.357C421.511 379.708 421.511 373.833 421.511 367.958C417.67 332.031 432.583 299.945 442.073 265.599C443.881 258.82 445.689 251.815 446.818 244.585C449.304 174.311 414.28 106.523 421.285 35.7978C421.285 24.9518 421.285 16.3653 421.285 10.4904C421.285 4.61543 421.285 1.452 421.285 1.452" stroke="#828282" stroke-width="0.5" stroke-miterlimit="10"/>
<path d="M451.563 572C451.563 572 451.563 488.621 451.563 385.357C451.563 379.256 451.563 373.156 451.563 367.055C456.76 320.959 461.958 275.315 463.087 229.445C463.313 220.181 463.313 211.143 463.087 201.878C461.732 154.427 451.789 109.235 451.337 60.6534C451.337 51.615 451.337 43.2545 451.337 36.0238C451.337 14.1057 451.337 1.452 451.337 1.452" stroke="#828282" stroke-width="0.5" stroke-miterlimit="10"/>
<path d="M481.616 572C481.616 572 481.616 478.905 481.616 367.958C481.616 361.406 481.616 354.853 481.616 348.3C485.457 294.973 486.587 243.455 485.006 191.484C484.78 184.027 484.554 176.571 484.102 169.34C481.842 149.23 481.842 126.634 481.39 107.201C481.39 96.8069 481.39 86.8647 481.39 77.6004C481.39 31.5046 481.39 1.452 481.39 1.452" stroke="#828282" stroke-width="0.5" stroke-miterlimit="10"/>
<path d="M511.668 572C511.668 572 511.668 462.861 511.668 339.939C511.668 333.839 511.668 327.512 511.668 321.411C512.12 269.666 514.606 214.532 511.668 162.109C511.668 156.46 511.668 150.811 511.668 145.162C511.668 62.687 511.668 1.22598 511.668 1.22598" stroke="#828282" stroke-width="0.5" stroke-miterlimit="10"/>
<path d="M541.722 572C541.722 572 541.722 443.203 541.722 308.079C541.722 301.074 541.722 293.844 541.722 286.613C542.4 259.724 542.4 229.445 541.722 202.104C541.722 195.325 541.722 188.546 541.722 181.768C541.722 81.4416 541.722 1.22598 541.722 1.22598" stroke="#828282" stroke-width="0.5" stroke-miterlimit="10"/>
<path d="M571.774 572V1.452" stroke="#828282" stroke-width="0.5" stroke-miterlimit="10"/>
</svg>
