<svg width="140" height="34" viewBox="0 0 140 34" fill="none" xmlns="http://www.w3.org/2000/svg">
<path d="M56.9165 18.9695C55.5111 18.0166 55.5111 15.9834 56.9164 15.0305L77.7128 0.930645C79.3366 -0.170271 81.5555 0.966985 81.5555 2.9001V7.62113C81.5555 8.4372 81.131 9.19716 80.4291 9.6378L69.3442 16.5967C69.0438 16.7852 69.0438 17.2148 69.3442 17.4033L80.4291 24.3622C81.131 24.8028 81.5555 25.5628 81.5555 26.3789V31.0999C81.5555 33.033 79.3366 34.1703 77.7128 33.0694L56.9165 18.9695Z" fill="#ED782F"/>
<path d="M23.956 5.76353C22.9912 4.7724 21.3754 4.77239 20.4106 5.76353L0.680495 26.0317C-0.80434 27.557 0.300489 30.0802 2.45321 30.0802H9.03286C9.67783 30.0802 10.2967 29.8312 10.7551 29.3872L21.8388 18.6519C22.0296 18.4671 22.3369 18.4671 22.5277 18.6519L33.6114 29.3872C34.0698 29.8312 34.6887 30.0802 35.3337 30.0802H41.9133C44.0661 30.0802 45.1709 27.557 43.6861 26.0317L23.956 5.76353Z" fill="#ED782F"/>
<path d="M119.589 29.3369C118.625 30.328 117.009 30.328 116.044 29.3369L96.3139 9.06875C94.8291 7.54343 95.9339 5.02018 98.0866 5.02018H104.666C105.311 5.02018 105.93 5.26923 106.389 5.71323L117.472 16.4485C117.663 16.6334 117.97 16.6334 118.161 16.4485L129.245 5.71323C129.703 5.26923 130.322 5.02018 130.967 5.02018H137.547C139.7 5.02018 140.804 7.54342 139.32 9.06875L119.589 29.3369Z" fill="#ED782F"/>
</svg>
