<svg width="50" height="34" viewBox="0 0 50 34" fill="none" xmlns="http://www.w3.org/2000/svg">
<path d="M39.2412 19.023L40.6745 18.9897C56.3745 18.723 51.1412 -4.34372 34.3412 1.75628C21.9412 6.25628 24.2412 26.9563 37.5078 30.3563C43.3745 31.8563 49.9078 30.7896 45.0412 29.1229C40.8745 27.7229 37.5078 23.6897 37.7412 20.3897C37.8078 19.6564 38.4412 19.023 39.2412 19.023Z" fill="#ED782F"/>
<path d="M8.60801 0.922813C-6.49199 6.72281 -0.358677 32.0562 16.408 33.1562C20.7746 33.4562 21.908 32.4229 18.608 31.1895C15.408 29.9895 11.3747 24.3229 10.9413 20.4895C10.8413 19.7229 11.4413 19.0895 12.2079 19.0895C16.6079 19.0895 18.4413 19.0896 21.008 15.5563C27.308 6.82294 18.9413 -3.04385 8.60801 0.922813Z" fill="#ED782F"/>
</svg>
